<?xml version="1.0" encoding="utf-8"?>
<!-- Generator: Adobe Illustrator 23.1.0, SVG Export Plug-In . SVG Version: 6.00 Build 0)  -->
<svg version="1.1" id="Layer_1" xmlns="http://www.w3.org/2000/svg" xmlns:xlink="http://www.w3.org/1999/xlink" x="0px" y="0px"
	 viewBox="0 0 600 600" style="enable-background:new 0 0 600 600;" xml:space="preserve">
<style type="text/css">
	.st0{fill:#FFB3FE;}
</style>
<g>
	<g>
		<path class="st0" d="M588.3,394.1c-9.2-2.3-17.6-7.6-25.8-12.1c-4.4-2.5-8.9-4.9-13.3-7.3c-4.2-2.3-8.2-5.2-13.1-5.3
			c-1.9-0.1-3.4,2.3-2.2,3.9c3,4.3,8,6.3,12.5,8.7c4.6,2.6,9.3,5,13.9,7.5c8.8,4.7,17.2,9.5,27.2,10.7
			C590.9,400.6,591.6,394.9,588.3,394.1L588.3,394.1z"/>
	</g>
	<g>
		<path class="st0" d="M507.3,354.7c-9.5-3.9-18.7-8.7-27.4-14.1c-4.2-2.6-8.3-5.5-12.3-8.5c-3.7-2.8-7.6-7.1-12.1-8.5
			c-1.4-0.4-3.3,1.1-2.7,2.7c1.9,4.5,6.8,7.9,10.6,10.8c4.3,3.2,8.7,6.3,13.2,9.1c9.2,5.7,19,10.1,29.2,13.7
			C509.2,360.9,510.4,355.9,507.3,354.7L507.3,354.7z"/>
	</g>
	<g>
		<path class="st0" d="M414.4,299.6c-5.9-3.3-11.7-6.6-17.7-9.7c-5.3-2.7-11.8-7-17.9-6.9c-1.7,0-3.4,2.2-2.2,3.8
			c3.7,4.9,10.6,7.4,16.1,9.9c6.1,2.9,12.4,5.5,18.6,8.2C414.8,306.4,417.9,301.6,414.4,299.6L414.4,299.6z"/>
	</g>
	<g>
		<path class="st0" d="M312.2,267.8c-5.3-2.4-10.1-5.4-14.3-9.4c-2-1.9-3.9-3.8-5.8-5.8c-1.7-2-3-4.2-5.9-4.3c-1,0-1.9,0.7-2.2,1.6
			c-0.8,2.8,1.3,4.9,3,6.9c2.1,2.4,4.4,4.6,7,6.5c5,3.7,10.4,6.7,16.2,9.1C312.9,273.4,314.7,269,312.2,267.8L312.2,267.8z"/>
	</g>
	<g>
		<path class="st0" d="M294.4,223.7c1.2-3.3,3.1-6.3,5.7-8.7c2.5-2.3,5.6-3.5,8.6-5c0.8-0.4,1.2-1.3,1.2-2.1c0-0.5-0.1-0.9-0.3-1.2
			c-0.7-0.9-1.6-1.4-2.8-1.1c-7.9,1.6-14,9.8-15.9,17.2C290.2,225,293.6,225.9,294.4,223.7L294.4,223.7z"/>
	</g>
	<g>
		<path class="st0" d="M333.6,210.4c10.4,2.3,17.5,11.3,21.4,20.8c0.3,0.8,1.3,0.6,1.4-0.2c1.7-12.8-9.5-23.2-21.4-25.4
			C331.8,205,330.4,209.7,333.6,210.4L333.6,210.4z"/>
	</g>
	<g>
		<path class="st0" d="M353.4,262.6c-2.3,4.5-5,8.7-8.2,12.5c-1.6,1.9-3.2,3.7-5,5.4c-1.5,1.6-3.3,2.9-3.1,5.3
			c0.1,1,0.7,2.1,1.8,2.3c4.8,0.9,8.6-5.9,11-9.4c3-4.5,5.4-9.5,7.3-14.6C358.1,262,354.5,260.4,353.4,262.6L353.4,262.6z"/>
	</g>
	<g>
		<path class="st0" d="M312.4,304.7c-4.7,3.6-9.4,7.1-14,10.8c-2.3,1.9-4.5,3.8-6.6,5.8c-1.8,1.7-3.7,3.4-3.6,6.1
			c0,0.7,0.5,1.4,1.2,1.6c4.7,0.9,9.7-5,12.9-7.8c4.6-4,8.8-8.3,13.2-12.5C317.5,306.8,314.7,302.9,312.4,304.7L312.4,304.7z"/>
	</g>
	<g>
		<path class="st0" d="M233,346.4c-5.9,0.9-11.8,1.8-17.6,3c-4.3,0.9-12.1,1.3-14.5,5.7c-0.5,1-0.2,2,0.7,2.6c3.9,3,11.6-0.1,15.8-1
			c5.8-1.3,11.5-2.9,17.2-4.6C238.4,351.1,236.7,345.8,233,346.4L233,346.4z"/>
	</g>
	<g>
		<path class="st0" d="M156.9,368.5c-5.5-0.2-10.9-0.3-16.4,0.3c-5.1,0.6-11,1.1-15.6,3.5c-3.3,1.7-1.8,7.7,2.1,7.3
			c4.9-0.5,9.7-2.5,14.6-3.4c5.1-1,10.2-1.6,15.3-1.7C160.8,374.4,160.7,368.7,156.9,368.5L156.9,368.5z"/>
	</g>
	<g>
		<path class="st0" d="M75.3,378c-10.6-2.4-21.3-3.4-32.2-2.6c-5.3,0.4-10.6,1.2-15.9,2.4c-4.9,1.1-11.5,2.2-15.3,5.7
			c-2.5,2.3-0.5,6.5,2.7,6.5c4.7,0.1,9.8-2.6,14.3-3.9c5-1.4,10.1-2.4,15.2-3.1c10-1.3,20.4-1.4,30.4-0.1
			C77.4,383.4,78,378.6,75.3,378L75.3,378z"/>
	</g>
	<g>
		<path class="st0" d="M11.6,389.8c2.6,0.5,5.3,1.1,7.5,2.7c2.3,1.7,3.3,4,4.5,6.6c1.7,3.6,6.3,0.8,5.9-2.5
			c-1.1-7.6-10.5-13.6-17.8-12.2C8.9,384.9,8.9,389.3,11.6,389.8L11.6,389.8z"/>
	</g>
	<g>
		<path class="st0" d="M17.7,388.6c4.9-6,7.5-13.7,6-21.5c-1-5.1-9.4-4-9,1.2c0.3,5-0.2,9.7-3.4,13.8c-1.6,1.9-1.9,4.6,0,6.5
			C12.8,390.2,16.1,390.5,17.7,388.6L17.7,388.6z"/>
	</g>
	<g>
		<path class="st0" d="M589.9,396.3c-1.1-3.4-2.8-6.6-3.9-10.1c-1.1-3.5-1.8-7-2.2-10.6c-0.6-5.4-9.2-5.5-8.5,0
			c0.9,8.2,3.2,17.7,8.7,24.1C586.2,402.4,590.9,399.6,589.9,396.3L589.9,396.3z"/>
	</g>
	<g>
		<path class="st0" d="M587.4,398.5c-1.6-6.3-12.3-7.1-17.5-6.5c-6.8,0.7-14.4,3.6-18.4,9.4c-2.3,3.4,2.3,8.1,5.7,5.7
			c4.4-3.1,8.1-6.1,13.7-6.8c2.4-0.3,5-0.3,7.4,0.2c2.4,0.4,5.2,1.5,7.5,0.7C587,400.8,587.7,399.7,587.4,398.5L587.4,398.5z"/>
	</g>
	<g>
		<path class="st0" d="M98.3,381.6c6.1,0,6.1-9.5,0-9.5C92.3,372.1,92.3,381.6,98.3,381.6L98.3,381.6z"/>
	</g>
	<g>
		<path class="st0" d="M174.5,365.4c-0.1,0.1-0.2,0.2-0.3,0.3c-0.2,0.2-0.4,0.5-0.5,0.8c-0.1,0.3-0.2,0.6-0.2,0.9
			c0,0.6,0.2,1.2,0.7,1.7c0.1,0.1,0.2,0.2,0.3,0.3c0.2,0.1,0.4,0.3,0.6,0.4c0.2,0.1,0.4,0.2,0.7,0.3c0.4,0.1,0.7,0.1,1.1,0
			c0.3,0,0.5-0.1,0.7-0.2c0.2-0.1,0.4-0.2,0.6-0.4c0.2-0.1,0.4-0.3,0.5-0.5c0.2-0.2,0.3-0.4,0.4-0.6c0.2-0.3,0.3-0.7,0.2-1.1
			c0-0.2-0.1-0.5-0.1-0.7c-0.1-0.2-0.2-0.4-0.3-0.7c-0.1-0.2-0.3-0.4-0.4-0.6c-0.2-0.1-0.4-0.3-0.6-0.4c-0.2-0.1-0.4-0.2-0.7-0.3
			c-0.4-0.1-0.7-0.1-1.1,0c-0.3,0-0.5,0.1-0.7,0.2C175.1,365,174.8,365.1,174.5,365.4L174.5,365.4z"/>
	</g>
	<g>
		<path class="st0" d="M264.9,335.8c-1.1,0-2.4-0.2-3.4,0.2c-0.4,0.2-0.8,0.3-1.1,0.5c-0.5,0.3-1,0.7-1.3,1.2
			c-0.6,0.8-1.1,1.8-1,2.9c0,0.8,0.3,1.6,0.6,2.4c0.3,0.5,0.7,1,1.2,1.3c0.5,0.4,1,0.7,1.6,0.8c1,0.4,2.4,0.2,3.4,0.2
			c1.2,0,2.5-0.5,3.3-1.4c0.8-0.8,1.4-2.2,1.4-3.3C269.5,337.9,267.5,335.9,264.9,335.8L264.9,335.8z"/>
	</g>
	<g>
		<path class="st0" d="M324.1,299.8c0.3,0,0.3-0.5,0-0.5C323.8,299.3,323.8,299.8,324.1,299.8L324.1,299.8z"/>
	</g>
	<g>
		<path class="st0" d="M358,250.4c4.9,0,4.9-7.5,0-7.5C353.2,242.9,353.2,250.4,358,250.4L358,250.4z"/>
	</g>
	<g>
		<path class="st0" d="M286.2,238c2,0,2-3.2,0-3.2C284.1,234.8,284.1,238,286.2,238L286.2,238z"/>
	</g>
	<g>
		<path class="st0" d="M317.8,210c3.6,0,3.6-5.6,0-5.6C314.2,204.4,314.2,210,317.8,210L317.8,210z"/>
	</g>
	<g>
		<path class="st0" d="M321.6,275.8c0,0.3,0.1,0.5,0.1,0.8c0,0.5,0.1,1.1,0.3,1.5c0.2,0.5,0.4,0.9,0.8,1.3c0.4,0.4,0.8,0.7,1.3,0.8
			c0.5,0.2,1,0.4,1.5,0.3c0.4,0,0.7-0.1,1.1-0.1c0.7-0.2,1.3-0.5,1.8-1c0.2-0.3,0.4-0.5,0.6-0.8c0.4-0.6,0.5-1.3,0.5-2
			c0-0.3,0.1-0.5,0.1-0.8c0-0.6-0.1-1.1-0.4-1.6c-0.2-0.5-0.4-0.9-0.8-1.3c-0.4-0.4-0.8-0.7-1.3-0.8c-0.5-0.3-1-0.4-1.6-0.4
			c-0.4,0-0.7,0.1-1.1,0.1c-0.7,0.2-1.3,0.5-1.8,1c-0.2,0.3-0.4,0.5-0.6,0.8C321.8,274.4,321.6,275.1,321.6,275.8L321.6,275.8z"/>
	</g>
	<g>
		<path class="st0" d="M359.9,285.8c0.1,0.1,0.1,0.1,0.2,0.2c-0.4-0.6-0.7-1.3-1.1-1.9c0.1,0.4,0.3,0.8,0.5,1.2
			c0.2,0.3,0.5,0.6,0.7,0.9c0.4,0.5,0.9,0.8,1.5,1c0.6,0.3,1.1,0.4,1.8,0.4c0.6,0,1.2-0.1,1.8-0.4c0.6-0.2,1.1-0.5,1.5-1
			c0.5-0.4,0.8-0.9,1-1.5c0.3-0.6,0.4-1.1,0.4-1.8c-0.1-0.4-0.1-0.8-0.2-1.2c-0.2-0.8-0.6-1.5-1.2-2c-0.3-0.2-0.6-0.5-0.9-0.7
			c-0.7-0.4-1.5-0.6-2.3-0.6c-0.4,0.1-0.8,0.1-1.2,0.2c-0.6,0.1-1.1,0.4-1.6,0.8c-0.5,0.3-0.9,0.8-1.2,1.3c-0.2,0.4-0.4,0.8-0.5,1.2
			c0.4-0.6,0.7-1.3,1.1-1.9c-0.1,0.1-0.1,0.1-0.2,0.2c-0.4,0.4-0.7,0.8-0.8,1.3c-0.3,0.5-0.4,1-0.3,1.6c0,0.4,0.1,0.7,0.1,1.1
			C359,284.7,359.4,285.3,359.9,285.8L359.9,285.8z"/>
	</g>
	<g>
		<path class="st0" d="M424.5,318.3c0.3,0.3,0.5,0.6,0.8,0.9c-0.3-0.4-0.6-0.8-0.9-1.1C424.5,318.1,424.5,318.1,424.5,318.3
			c-0.2-0.5-0.4-1-0.6-1.4c0.4,1.1,0.8,1.9,1.6,2.8c0.1,0.1,0.3,0.3,0.4,0.4c1.2,1.1,2.6,1.7,4.2,1.7c1.1,0,2.1-0.3,3-0.8
			c0.7-0.4,1.2-0.9,1.7-1.5c0.5-0.6,0.9-1.2,1.1-2c0.2-0.8,0.3-1.6,0.1-2.4c0-0.8-0.3-1.5-0.7-2.2c-0.5-0.9-1.2-1.6-2.1-2.1
			c-0.2-0.1-0.4-0.2-0.6-0.3c-0.9-0.5-1.9-0.8-2.9-0.8c-0.1,0-0.2,0-0.3,0c0.5,0.1,1,0.1,1.5,0.2c-0.4-0.1-0.7-0.3-1.1-0.4
			c-0.5-0.1-0.9-0.1-1.4-0.2c-0.7,0-1.4,0.1-2,0.5c-1,0.4-2,1.2-2.5,2.2c-0.4,0.8-0.7,1.7-0.7,2.7
			C422.9,315.9,423.6,317.3,424.5,318.3L424.5,318.3z"/>
	</g>
	<g>
		<path class="st0" d="M523.7,371C523.7,371,523.7,371,523.7,371c1.5-0.4,2.6-1.6,3-2.9c0.4-1.4,0-3-1.1-4.1
			c-1.1-1.1-2.6-1.5-4.1-1.1c-1.4,0.4-2.6,1.5-2.9,2.9c0,0,0,0,0,0.1c-0.2,0.7-0.2,1.5,0,2.2c0.2,0.7,0.6,1.3,1.1,1.8
			c0.5,0.5,1.1,0.9,1.8,1.1C522.2,371.2,522.9,371.2,523.7,371L523.7,371z"/>
	</g>
</g>
</svg>
